<?xml version="1.0" encoding="UTF-8" standalone="no"?>
<svg
   width="300"
   height="300"
   version="1"
   id="svg5"
   xml:space="preserve"
   xmlns="http://www.w3.org/2000/svg"
   xmlns:svg="http://www.w3.org/2000/svg"><defs
     id="defs5" /><g
     id="layer7"
     transform="translate(-5895.9999,-456.94198)"><g
       id="g66"
       transform="matrix(0.8629678,0,0,0.8629678,5497.2208,41.600391)"
       style="display:inline"><path
         id="path65"
         style="fill:#000000;stroke:none;stroke-width:38.3675;stroke-linecap:square;stroke-linejoin:miter;stroke-dasharray:none;paint-order:stroke fill markers"
         d="m 519.34974,491.36334 -4.34273,10.80775 -31.16034,77.54315 -11.91579,-0.0698 c -0.16137,28.68043 22.95371,52.06345 51.63408,52.23266 28.68036,0.16922 52.06975,-22.93941 52.24682,-51.61975 l -11.91579,-0.0698 -26.76526,-68.94494 73.63665,30.19626 c 0.077,7.25467 3.34643,14.41648 9.50559,19.11369 0.87768,0.66936 1.79226,1.26199 2.72865,1.79293 l -46.08398,133.88958 -1.4025,4.07009 0.009,0.002 -39.51427,111.73097 c 25.64225,3.68039 57.55337,9.20172 92.58239,5.71687 41.43389,-3.02866 69.58075,-15.92263 84.7345,-26.4599 l -25.41293,-85.60697 0.0872,-0.0262 -1.24763,-4.12025 -41.85249,-138.15815 c 2.6601,-1.17547 5.12934,-2.84207 7.26333,-4.96873 l 86.08465,35.36566 -30.30096,78.02737 -11.91797,0.0676 c 0.17174,28.68114 23.55804,51.79442 52.2392,51.62941 28.68115,-0.16501 51.79997,-23.54584 51.6417,-52.22705 l -11.91797,0.0676 -35.48781,-88.35744 -93.48321,-38.40623 c 1.09845,-8.14001 -1.93469,-16.64891 -8.64402,-22.13898 l 7.15427,-17.41236 -14.24529,-5.85211 -7.33095,17.8377 c -7.64175,-0.27648 -15.31942,3.00722 -20.26534,9.49249 -0.0584,0.0766 -0.11057,0.15626 -0.16795,0.23339 l -86.08466,-35.32422 z m 4.94474,16.77982 27.94092,71.9746 c -19.45689,6.1935 -38.32158,5.57671 -56.72596,-0.33372 z m 110.36119,24.17403 c 1.97593,-0.0709 3.9942,0.53512 5.73214,1.86054 3.97246,3.02955 4.70688,8.47337 1.67733,12.44582 -3.02955,3.97245 -8.47554,4.70688 -12.448,1.67733 -3.97245,-3.02955 -4.70469,-8.47555 -1.67514,-12.448 1.70412,-2.2345 4.17319,-3.44457 6.71367,-3.53569 z m 6.31452,47.7962 11.10875,36.66783 c -2.80148,0.0201 -5.56442,0.0631 -8.3452,0.11124 l -1.25854,-0.4406 -1.91725,-36.25558 c 0.14027,-0.0277 0.27341,-0.0549 0.41224,-0.0829 z m -15.02397,0.1396 c 2.2441,0.4566 4.22607,0.67301 6.02878,0.73724 l 1.82347,34.42121 -6.07241,1.54427 c -4.69771,-0.0593 -9.40884,-0.21628 -14.19076,-0.64562 z m 121.61172,19.5172 28.77631,71.64306 c -19.49938,6.00906 -38.34476,5.47813 -56.72814,0.32718 z m -119.73591,27.9671 6.84891,4.15951 2.88788,54.57532 c -16.18451,-0.58783 -32.77262,0.55985 -49.55642,4.01773 l 20.77356,-60.35108 c 6.51593,-1.05325 12.56609,-2.25633 19.04607,-2.40148 z m 20.13448,1.34579 8.18161,1.10149 18.32846,60.49941 c -9.23422,-1.73822 -18.66591,-3.03803 -28.26156,-3.74727 l -2.90969,-55.02028 z" /><path
         style="display:inline;opacity:0.5;fill:#f9f9f9;stroke-width:8.6102;stroke-linecap:square;stroke-linejoin:round;paint-order:stroke fill markers"
         d="m 659.45556,697.68329 c 10.22956,0.40207 15.90518,1.54358 20.12431,3.00631 l 23.64273,87.10616 c -8.54367,6.19151 -17.60286,10.93159 -29.68226,13.58737 z"
         id="path66" /></g></g></svg>
